<svg xmlns="http://www.w3.org/2000/svg" viewBox="0 0 100 100">
  <rect width="100" height="100" rx="18" fill="#F7F7F5"/>
  <g transform="translate(8 28.245) scale(0.4078)">
    <path fill="#E67300" d="M190.344,64.9185 C198.996,64.9185 206,72.1547 206,81.0448 L206,91.3822 C206,100.2723 198.996,107.5084 190.344,107.5084 L166.654,107.5084 C158.002,107.5084 150.998,100.2723 150.998,91.3822 L150.998,84.973 C150.998,73.8087 142.14,64.9185 131.428,64.9185 L19.57,64.9185 C8.652,64.9185 0,56.0284 0,44.8641 L0,20.0545 C0,8.8901 8.858,0 19.57,0 L131.428,0 C142.346,0 150.998,8.8901 150.998,20.0545 L150.998,44.8641 C150.998,56.0284 159.856,64.9185 170.568,64.9185 L190.344,64.9185 Z"/>
    <text x="75.5" y="34" fill="#ffffff" font-family="Nunito, system-ui, sans-serif" font-weight="800" font-size="46" text-anchor="middle" dominant-baseline="central" letter-spacing="1">JK</text>
  </g>
</svg>
